<svg width="64" height="64" viewBox="0 0 64 64" fill="none" xmlns="http://www.w3.org/2000/svg">
<rect width="64" height="64" rx="32" fill="url(#paint0_linear_4048_225)"/>
<path d="M4 32C4 16.536 16.536 4 32 4C47.464 4 60 16.536 60 32C60 47.464 47.464 60 32 60C16.536 60 4 47.464 4 32Z" fill="#678F4D"/>
<path d="M38.6672 38.667L42.0006 42.0003L48.6672 35.3336" stroke="white" stroke-width="2" stroke-linecap="round" stroke-linejoin="round"/>
<path d="M47.0005 28.667V25.3336C46.9999 24.7491 46.8456 24.175 46.5531 23.6689C46.2605 23.1628 45.8401 22.7426 45.3338 22.4503L33.6672 15.7836C33.1604 15.4911 32.5856 15.337 32.0005 15.337C31.4154 15.337 30.8406 15.4911 30.3338 15.7836L18.6672 22.4503C18.1609 22.7426 17.7405 23.1628 17.4479 23.6689C17.1554 24.175 17.0011 24.7491 17.0005 25.3336V38.667C17.0011 39.2515 17.1554 39.8256 17.4479 40.3317C17.7405 40.8378 18.1609 41.258 18.6672 41.5503L30.3338 48.217C30.8406 48.5095 31.4154 48.6635 32.0005 48.6635C32.5856 48.6635 33.1604 48.5095 33.6672 48.217L37.0005 46.317" stroke="white" stroke-width="2" stroke-linecap="round" stroke-linejoin="round"/>
<path d="M39.5004 27.6669L24.5837 19.0669" stroke="white" stroke-width="2" stroke-linecap="round" stroke-linejoin="round"/>
<path d="M17.4839 23.6669L32.0006 32.0002L46.5172 23.6669" stroke="white" stroke-width="2" stroke-linecap="round" stroke-linejoin="round"/>
<path d="M32.0005 48.6669V32.0002" stroke="white" stroke-width="2" stroke-linecap="round" stroke-linejoin="round"/>
<defs>
<linearGradient id="paint0_linear_4048_225" x1="53.4857" y1="0.914288" x2="10" y2="59.5" gradientUnits="userSpaceOnUse">
<stop stop-color="white" stop-opacity="0.13"/>
<stop offset="1" stop-color="white"/>
</linearGradient>
</defs>
</svg>
