<svg width="88" height="88" viewBox="0 0 88 88" fill="none" xmlns="http://www.w3.org/2000/svg">
<rect width="88" height="88" rx="44" fill="url(#paint0_linear_4124_947)"/>
<path d="M4 44C4 21.9086 21.9086 4 44 4C66.0914 4 84 21.9086 84 44C84 66.0914 66.0914 84 44 84C21.9086 84 4 66.0914 4 44Z" fill="#F6709C"/>
<path d="M37.1749 57.925C37.1749 59.6312 36.6971 61.2464 35.8554 62.6114C34.2856 65.2504 31.3964 67.025 28.0749 67.025C24.7534 67.025 21.8641 65.2504 20.2944 62.6114C19.4526 61.2464 18.9749 59.6312 18.9749 57.925C18.9749 52.8972 23.0471 48.825 28.0749 48.825C33.1026 48.825 37.1749 52.8972 37.1749 57.925Z" stroke="white" stroke-width="2.5" stroke-miterlimit="10" stroke-linecap="round" stroke-linejoin="round"/>
<path d="M24.5291 57.9238L26.7813 60.176L31.6271 55.6943" stroke="white" stroke-width="2.5" stroke-linecap="round" stroke-linejoin="round"/>
<path d="M57.0844 30.7387C56.5384 30.6477 55.9697 30.625 55.3782 30.625H32.6282C31.9912 30.625 31.3769 30.6704 30.7854 30.7614C31.1039 30.1244 31.5589 29.533 32.1049 28.987L39.4987 21.5705C42.6154 18.4765 47.6659 18.4765 50.7827 21.5705L54.7639 25.5972C56.2199 27.0304 56.9934 28.8504 57.0844 30.7387Z" stroke="white" stroke-width="2.5" stroke-linecap="round" stroke-linejoin="round"/>
<path d="M66.75 42V53.375C66.75 60.2 62.2 64.75 55.375 64.75H34.0583C34.7635 64.1585 35.3777 63.4305 35.8555 62.6115C36.6972 61.2465 37.175 59.6313 37.175 57.925C37.175 52.8973 33.1028 48.825 28.075 48.825C25.345 48.825 22.9108 50.0307 21.25 51.919V42C21.25 35.812 24.981 31.4895 30.7822 30.7615C31.3737 30.6705 31.988 30.625 32.625 30.625H55.375C55.9665 30.625 56.5353 30.6477 57.0813 30.7387C62.9508 31.4212 66.75 35.7665 66.75 42Z" stroke="white" stroke-width="2.5" stroke-linecap="round" stroke-linejoin="round"/>
<path d="M66.75 43.1375H59.925C57.4225 43.1375 55.375 45.185 55.375 47.6875C55.375 50.19 57.4225 52.2375 59.925 52.2375H66.75" stroke="white" stroke-width="2.5" stroke-linecap="round" stroke-linejoin="round"/>
<defs>
<linearGradient id="paint0_linear_4124_947" x1="73.5429" y1="1.25715" x2="13.75" y2="81.8125" gradientUnits="userSpaceOnUse">
<stop stop-color="white" stop-opacity="0.13"/>
<stop offset="1" stop-color="white"/>
</linearGradient>
</defs>
</svg>
