<svg width="64" height="64" viewBox="0 0 64 64" fill="none" xmlns="http://www.w3.org/2000/svg">
<rect width="64" height="64" rx="32" fill="url(#paint0_linear_4023_2208)"/>
<path d="M4 32C4 16.536 16.536 4 32 4C47.464 4 60 16.536 60 32C60 47.464 47.464 60 32 60C16.536 60 4 47.464 4 32Z" fill="#678F4D"/>
<g clip-path="url(#clip0_4023_2208)">
<path d="M21.2746 20.5718C19.9986 21.1623 17.494 23.7013 17.7303 28.6023C18.0138 33.5032 22.1252 35.688 22.456 40.5299C22.6923 45.1356 20.8493 47.8518 19.0062 50.0956" stroke="white" stroke-width="2" stroke-linecap="round" stroke-linejoin="round"/>
<path d="M33.7076 13.905C31.8585 14.6288 28.2288 17.7412 28.6397 23.7488C28.9822 29.7565 35.0088 32.4346 35.3513 38.3698C35.7622 44.0155 33.0913 47.345 30.4204 50.0955" stroke="white" stroke-width="2" stroke-linecap="round" stroke-linejoin="round"/>
<path d="M45.3246 20.5718C44.3038 21.1623 42.3001 23.7013 42.4891 28.6023C42.7159 33.5032 46.0051 35.688 46.2697 40.5299C46.4587 45.1356 44.9843 47.8518 43.4721 50.0956" stroke="white" stroke-width="2" stroke-linecap="round" stroke-linejoin="round"/>
</g>
<defs>
<linearGradient id="paint0_linear_4023_2208" x1="53.4857" y1="0.914288" x2="10" y2="59.5" gradientUnits="userSpaceOnUse">
<stop stop-color="white" stop-opacity="0.13"/>
<stop offset="1" stop-color="white"/>
</linearGradient>
<clipPath id="clip0_4023_2208">
<rect width="40" height="40" fill="white" transform="translate(12.0005 12.0002)"/>
</clipPath>
</defs>
</svg>
