<svg width="88" height="88" viewBox="0 0 88 88" fill="none" xmlns="http://www.w3.org/2000/svg">
<rect width="88" height="88" rx="44" fill="url(#paint0_linear_4124_924)"/>
<path d="M4 44C4 21.9086 21.9086 4 44 4C66.0914 4 84 21.9086 84 44C84 66.0914 66.0914 84 44 84C21.9086 84 4 66.0914 4 44Z" fill="#F6709C"/>
<path d="M42.5052 20.4859C41.3614 21.8139 40.7208 22.1344 39.4397 22.1344C38.4331 22.1344 37.701 22.4092 37.5637 22.8213C37.3807 23.1876 37.0147 23.5082 36.7401 23.5082C36.0081 23.5082 35.093 25.4772 35.093 26.9425C35.093 27.6294 35.3675 28.0873 35.7793 28.0873C36.1911 28.0873 36.3283 28.3621 36.1911 28.7742C36.0081 29.1863 35.6878 29.4611 35.3675 29.4153C34.2236 29.2779 33.8118 29.5069 33.5831 30.3769C33.4458 30.9264 32.9425 31.2927 32.3934 31.2927C31.3411 31.2927 30.5175 32.5291 30.5175 34.1318C30.5175 35.7345 29.5109 37.6578 28.5043 37.9783C28.0467 38.1615 27.0859 38.8484 26.3996 39.5352C24.8439 41.1379 23.6543 41.5043 20.3599 41.4585C17.2029 41.4127 17.2486 41.2295 18.85 47.503C20.3142 53.1353 20.3142 53.5475 18.667 54.4175C15.876 55.8371 15.0524 58.4014 17.0656 59.3172C18.118 59.8209 18.2095 60.0499 18.0722 62.3853L17.9349 64.9496L19.5364 64.8122C20.4057 64.7206 21.4581 64.3085 21.8241 63.9422C22.2359 63.4843 22.2816 63.3469 21.9156 63.5758C21.5953 63.759 20.8175 63.759 20.2684 63.6216C19.3533 63.3927 19.2161 63.0721 19.2618 61.4694C19.3076 59.9583 19.0788 59.4088 18.118 58.5845C16.6081 57.394 16.8368 56.7529 19.0788 55.5165C20.0854 54.967 20.9548 54.1886 21.0005 53.7764C21.1835 52.8606 20.7717 50.3421 19.7194 46.3124C19.2618 44.6181 19.0331 43.107 19.1703 42.9696C19.3076 42.8322 20.4057 42.6949 21.6411 42.6491C24.3864 42.6033 25.942 42.0538 25.942 41.1837C25.942 40.8174 26.5826 40.2221 27.3604 39.81C28.5958 39.1689 28.8703 39.1689 29.4651 39.7642C30.2887 40.6342 30.7005 40.6342 31.4783 39.7184C31.9359 39.1689 31.9359 38.8026 31.5241 38.1615C31.0208 37.383 31.0665 36.3298 31.7071 33.216C31.8444 32.4833 32.2104 32.2086 33.0798 32.2086C33.8576 32.2086 34.3609 31.888 34.4981 31.2927C34.6354 30.7432 35.1387 30.3769 35.7335 30.3769C36.3741 30.3769 37.0147 29.919 37.3349 29.2779C38.0213 28.0873 37.701 27.1715 36.6486 27.1715C35.8708 27.1715 35.8708 26.9425 36.5114 25.6604C37.4264 23.9661 38.8448 23.1418 40.3548 23.3708C41.5901 23.554 41.9104 23.3708 42.8713 21.997C43.8779 20.5317 44.1066 20.3943 46.1656 20.4859C47.3552 20.5317 48.3618 20.4401 48.3618 20.257C48.3618 19.7075 47.8585 19.5243 45.7996 19.2037C44.0609 18.8832 43.8321 18.9748 42.5052 20.4859Z" fill="white" stroke="white"/>
<path d="M49.7343 20.5318C49.3226 20.9897 49.4598 21.1728 50.2376 21.3102C50.9697 21.4018 51.3815 21.9055 51.656 23.0045C52.0221 24.2867 52.2051 24.4698 53.0744 24.2409C53.6235 24.0577 54.3098 23.8745 54.6301 23.783C54.9504 23.7372 55.3622 23.554 55.4994 23.3708C56.1858 22.7298 57.6042 23.0961 59.1598 24.2867C60.5325 25.4315 60.6697 25.752 60.4409 27.08C60.2579 27.9958 60.3952 28.82 60.7155 29.2322C61.2188 29.8275 61.173 30.148 60.7155 31.0638C60.1207 32.2086 60.2579 32.8039 61.5848 34.9561C61.8593 35.3224 62.4084 36.5588 62.8659 37.612C63.3692 38.8484 64.1928 39.9016 64.9707 40.2679C65.9315 40.8174 66.206 41.2296 66.1145 42.1454C65.9773 43.2444 66.1603 43.4276 67.9447 43.7939C68.9971 43.9771 69.7749 44.3434 69.6376 44.5724C69.5004 44.7555 69.7749 45.3966 70.2782 45.9919C71.1018 46.9993 71.1018 47.0451 69.7749 48.3273C68.2192 49.8384 68.4938 49.7926 66.8466 48.9226C64.9249 47.9609 63.9641 48.0525 63.3692 49.4263C62.9117 50.3879 62.9575 50.8458 63.598 52.0364C64.0098 52.8606 64.4674 54.326 64.6046 55.3334C64.7876 56.3408 65.0164 57.5314 65.1537 57.9435C65.2452 58.4472 65.1079 58.7678 64.7419 58.7678C64.3759 58.7678 63.6895 59.0883 63.1862 59.4088C62.4084 60.0499 62.4999 60.0957 64.5131 60.0499C66.4348 60.0499 66.6636 59.9126 66.6636 58.9509C66.6636 58.4014 66.4806 57.7603 66.206 57.623C65.9773 57.4856 65.7485 56.2492 65.7485 54.9213C65.7485 53.0896 65.5197 52.3111 64.8792 51.7159C64.3759 51.2579 64.1013 50.6169 64.2386 50.2505C64.5131 49.5179 66.023 49.3805 66.4348 50.0674C66.9839 50.9374 69.3174 50.5711 70.1867 49.4721C70.6442 48.8768 71.3763 48.2815 71.8339 48.0983C72.8862 47.6862 72.8405 46.5872 71.7424 45.8545C71.2391 45.4882 70.873 44.8013 70.9188 44.3434C71.0103 43.6107 70.5985 43.336 69.0428 43.0154C67.6244 42.6949 67.1669 42.3744 67.3499 41.8706C67.6244 40.9548 67.2584 40.4053 65.6112 39.3979C64.3301 38.5737 63.3235 36.742 63.3692 35.3224C63.3692 34.8645 62.8202 34.1777 62.0424 33.7197C60.7155 32.9413 60.3037 32.2086 61.173 32.2086C62.1339 32.2086 62.5914 30.4227 61.9509 29.1406C61.4475 28.2247 61.4018 27.5837 61.7678 26.5762C62.1796 25.3399 62.0881 25.1109 60.4409 23.6914C58.1075 21.6765 57.6042 21.5392 55.0876 22.3176C52.9829 22.9587 52.9372 22.9587 52.9372 21.9513C52.9372 20.6691 50.5122 19.6159 49.7343 20.5318Z" fill="white" stroke="white"/>
<path d="M60.075 61.4695C58.7482 62.8433 58.5194 63.7591 59.0227 65.7281C59.2057 66.4608 59.1599 67.0103 58.9312 67.0103C58.7024 67.0103 58.4279 66.5524 58.2906 66.0487C58.0618 65.1329 57.7873 65.0871 55.042 65.2702C52.434 65.4992 52.068 65.4076 51.8849 64.6749C51.6562 63.7591 50.2378 63.4844 49.4599 64.2628C49.1854 64.5376 48.4533 64.5376 47.401 64.2628C46.4859 63.9881 45.1133 63.8965 44.2897 63.9881C43.5118 64.0797 42.734 63.9423 42.5967 63.7133C42.4137 63.4844 41.9104 63.3928 41.4071 63.4844C40.9038 63.6217 40.4463 63.4844 40.2633 63.0722C40.126 62.7059 39.5312 62.4312 38.9364 62.4312C38.3416 62.4312 36.9689 62.0648 35.9166 61.6069C33.4458 60.5995 24.2034 60.5079 23.0137 61.4695C21.9614 62.3396 22.0986 63.0264 23.2425 62.4312C24.6609 61.6527 32.2104 61.7901 34.8642 62.6143C36.1453 63.0264 37.6095 63.347 38.1585 63.347C38.7533 63.347 39.2567 63.7133 39.4397 64.3086C39.6684 64.9955 40.0345 65.1786 40.7208 64.9955C41.3156 64.8581 41.8647 65.0413 42.2307 65.545C42.6425 66.1403 42.917 66.1861 43.4661 65.7281C44.2897 65.0413 47.3552 65.2244 47.6755 65.9571C47.95 66.7814 49.1397 66.6898 49.4599 65.8655C49.826 64.8581 50.9699 65.0413 51.2444 66.0945C51.4732 66.9645 52.8916 67.3766 53.5321 66.7356C53.7151 66.5524 54.6302 66.3692 55.6368 66.2776C57.101 66.1403 57.467 66.2776 57.65 67.0103C57.9703 68.2009 59.2972 68.7046 59.8463 67.8804C60.075 67.514 60.1665 66.4608 60.0293 65.4992C59.8463 64.1712 60.0293 63.347 60.7614 62.1564C61.9967 60.0958 61.6765 59.7752 60.075 61.4695Z" fill="white" stroke="white"/>
<defs>
<linearGradient id="paint0_linear_4124_924" x1="73.5429" y1="1.25715" x2="13.75" y2="81.8125" gradientUnits="userSpaceOnUse">
<stop stop-color="white" stop-opacity="0.13"/>
<stop offset="1" stop-color="white"/>
</linearGradient>
</defs>
</svg>
