<svg width="16" height="16" viewBox="0 0 16 16" fill="none" xmlns="http://www.w3.org/2000/svg">
<path d="M0.666992 2H2.37265C2.94655 2 3.45607 2.36724 3.63756 2.9117L4.00033 4M4.00033 4L6.23368 10.1417C6.47644 10.8093 7.19993 11.1694 7.87886 10.9605L14.3924 8.95627C14.9519 8.78413 15.3337 8.26724 15.3337 7.6819V5.33333C15.3337 4.59695 14.7367 4 14.0003 4H4.00033Z" stroke="#F6709C" stroke-linecap="round"/>
<path d="M3.91144 13.3333C3.91144 14.1188 4.54819 14.7556 5.33366 14.7556C6.11913 14.7556 6.75588 14.1188 6.75588 13.3333C6.75588 12.5479 6.11913 11.9111 5.33366 11.9111C4.54819 11.9111 3.91144 12.5479 3.91144 13.3333ZM4.66699 13.3333V13.6H5.33366V13.3333V13.0667H4.66699V13.3333Z" fill="#F6709C"/>
<path d="M11.7925 13.3333C11.7925 14.1188 12.4292 14.7555 13.2147 14.7555C14.0002 14.7555 14.6369 14.1188 14.6369 13.3333C14.6369 12.5478 14.0002 11.9111 13.2147 11.9111C12.4292 11.9111 11.7925 12.5478 11.7925 13.3333ZM12.6172 13.3333V13.5999H13.2147V13.3333V13.0666H12.6172V13.3333Z" fill="#F6709C"/>
</svg>
