<svg width="24" height="24" viewBox="0 0 24 24" fill="none" xmlns="http://www.w3.org/2000/svg">
<path d="M1 3H3.55848C4.41934 3 5.18362 3.55086 5.45585 4.36754L6 6M6 6L9.35004 15.2126C9.71417 16.214 10.7994 16.754 11.8178 16.4407L21.5882 13.4344C22.4274 13.1762 23 12.4009 23 11.5229V8C23 6.89543 22.1046 6 21 6H6Z" stroke="#3C2008" stroke-width="1.5" stroke-linecap="round"/>
<path d="M5.86667 20C5.86667 21.1782 6.82179 22.1333 8 22.1333C9.17821 22.1333 10.1333 21.1782 10.1333 20C10.1333 18.8218 9.17821 17.8667 8 17.8667C6.82179 17.8667 5.86667 18.8218 5.86667 20ZM7 20V20.4H8V20V19.6H7V20Z" fill="#3C2008"/>
<path d="M17.6887 20C17.6887 21.1782 18.6439 22.1333 19.8221 22.1333C21.0003 22.1333 21.9554 21.1782 21.9554 20C21.9554 18.8218 21.0003 17.8667 19.8221 17.8667C18.6439 17.8667 17.6887 18.8218 17.6887 20ZM18.9258 20V20.4H19.8221V20V19.6H18.9258V20Z" fill="#3C2008"/>
</svg>
