<svg width="20" height="20" viewBox="0 0 20 20" fill="none" xmlns="http://www.w3.org/2000/svg">
<path fill-rule="evenodd" clip-rule="evenodd" d="M4.16659 10.8332C3.70617 10.8332 3.33325 10.4603 3.33325 9.99984C3.33325 9.53942 3.70617 9.1665 4.16659 9.1665C4.627 9.1665 4.99992 9.53942 4.99992 9.99984C4.99992 10.4603 4.627 10.8332 4.16659 10.8332Z" fill="white" stroke="white" stroke-width="1.5" stroke-linecap="round" stroke-linejoin="round"/>
<path fill-rule="evenodd" clip-rule="evenodd" d="M9.99984 10.8332C9.53942 10.8332 9.1665 10.4603 9.1665 9.99984C9.1665 9.53942 9.53942 9.1665 9.99984 9.1665C10.4603 9.1665 10.8332 9.53942 10.8332 9.99984C10.8332 10.4603 10.4603 10.8332 9.99984 10.8332Z" fill="white" stroke="white" stroke-width="1.5" stroke-linecap="round" stroke-linejoin="round"/>
<path fill-rule="evenodd" clip-rule="evenodd" d="M15.8333 10.8332C15.3729 10.8332 15 10.4603 15 9.99984C15 9.53942 15.3729 9.1665 15.8333 9.1665C16.2937 9.1665 16.6667 9.53942 16.6667 9.99984C16.6667 10.4603 16.2937 10.8332 15.8333 10.8332Z" fill="white" stroke="white" stroke-width="1.5" stroke-linecap="round" stroke-linejoin="round"/>
<path fill-rule="evenodd" clip-rule="evenodd" d="M4.16659 16.6667C3.70617 16.6667 3.33325 16.2937 3.33325 15.8333C3.33325 15.3729 3.70617 15 4.16659 15C4.627 15 4.99992 15.3729 4.99992 15.8333C4.99992 16.2937 4.627 16.6667 4.16659 16.6667Z" fill="white" stroke="white" stroke-width="1.5" stroke-linecap="round" stroke-linejoin="round"/>
<path fill-rule="evenodd" clip-rule="evenodd" d="M9.99984 16.6667C9.53942 16.6667 9.1665 16.2937 9.1665 15.8333C9.1665 15.3729 9.53942 15 9.99984 15C10.4603 15 10.8332 15.3729 10.8332 15.8333C10.8332 16.2937 10.4603 16.6667 9.99984 16.6667Z" fill="white" stroke="white" stroke-width="1.5" stroke-linecap="round" stroke-linejoin="round"/>
<path fill-rule="evenodd" clip-rule="evenodd" d="M15.8333 16.6667C15.3729 16.6667 15 16.2937 15 15.8333C15 15.3729 15.3729 15 15.8333 15C16.2937 15 16.6667 15.3729 16.6667 15.8333C16.6667 16.2937 16.2937 16.6667 15.8333 16.6667Z" fill="white" stroke="white" stroke-width="1.5" stroke-linecap="round" stroke-linejoin="round"/>
<path fill-rule="evenodd" clip-rule="evenodd" d="M4.16659 4.99992C3.70617 4.99992 3.33325 4.627 3.33325 4.16659C3.33325 3.70617 3.70617 3.33325 4.16659 3.33325C4.627 3.33325 4.99992 3.70617 4.99992 4.16659C4.99992 4.627 4.627 4.99992 4.16659 4.99992Z" fill="white" stroke="white" stroke-width="1.5" stroke-linecap="round" stroke-linejoin="round"/>
<path fill-rule="evenodd" clip-rule="evenodd" d="M9.99984 4.99992C9.53942 4.99992 9.1665 4.627 9.1665 4.16659C9.1665 3.70617 9.53942 3.33325 9.99984 3.33325C10.4603 3.33325 10.8332 3.70617 10.8332 4.16659C10.8332 4.627 10.4603 4.99992 9.99984 4.99992Z" fill="white" stroke="white" stroke-width="1.5" stroke-linecap="round" stroke-linejoin="round"/>
<path fill-rule="evenodd" clip-rule="evenodd" d="M15.8333 4.99992C15.3729 4.99992 15 4.627 15 4.16659C15 3.70617 15.3729 3.33325 15.8333 3.33325C16.2937 3.33325 16.6667 3.70617 16.6667 4.16659C16.6667 4.627 16.2937 4.99992 15.8333 4.99992Z" fill="white" stroke="white" stroke-width="1.5" stroke-linecap="round" stroke-linejoin="round"/>
</svg>
