<svg width="296" height="40" viewBox="0 0 296 40" fill="none" xmlns="http://www.w3.org/2000/svg">
<path d="M278.981 0.706299L292.133 34.6737C292.677 35.9418 293.238 36.8295 293.818 37.3367C294.434 37.844 294.977 38.1157 295.448 38.152V39.2389C294.289 39.1664 292.894 39.1302 291.264 39.1302C289.669 39.094 288.039 39.0759 286.372 39.0759C284.633 39.0759 282.985 39.094 281.427 39.1302C279.869 39.1302 278.619 39.1664 277.677 39.2389V38.152C279.524 38.0795 280.702 37.7715 281.209 37.228C281.716 36.6483 281.608 35.4346 280.883 33.5867L271.861 8.91282L272.948 7.28239L265.014 27.7715C264.18 29.9454 263.673 31.7027 263.492 33.0433C263.311 34.3838 263.401 35.4164 263.764 36.1411C264.126 36.8657 264.688 37.373 265.448 37.6628C266.245 37.9527 267.188 38.1157 268.274 38.152V39.2389C267.006 39.1664 265.829 39.1302 264.742 39.1302C263.691 39.094 262.55 39.0759 261.318 39.0759C260.593 39.0759 259.851 39.094 259.09 39.1302C258.365 39.1302 257.731 39.1664 257.188 39.2389V38.152C257.985 38.007 258.782 37.4998 259.579 36.6302C260.412 35.7606 261.227 34.257 262.024 32.1193L274.253 0.706299C274.977 0.778764 275.756 0.814997 276.59 0.814997C277.459 0.814997 278.256 0.778764 278.981 0.706299ZM281.807 23.5867V24.6737H265.611L266.155 23.5867H281.807Z" fill="#3C2008"/>
<path d="M256.499 0.760498V1.84745C255.376 1.88368 254.524 2.02861 253.944 2.28224C253.365 2.49963 252.984 2.93441 252.803 3.58658C252.622 4.20252 252.531 5.18078 252.531 6.52136V33.4779C252.531 34.7822 252.622 35.7605 252.803 36.4127C253.021 37.0648 253.401 37.4996 253.944 37.717C254.524 37.9344 255.376 38.0793 256.499 38.1518V39.2388C255.484 39.1663 254.18 39.1301 252.586 39.1301C251.028 39.0938 249.452 39.0757 247.857 39.0757C246.01 39.0757 244.271 39.0938 242.64 39.1301C241.01 39.1301 239.705 39.1663 238.727 39.2388V38.1518C239.85 38.0793 240.684 37.9344 241.227 37.717C241.807 37.4996 242.187 37.0648 242.368 36.4127C242.586 35.7605 242.694 34.7822 242.694 33.4779V6.52136C242.694 5.18078 242.586 4.20252 242.368 3.58658C242.187 2.93441 241.807 2.49963 241.227 2.28224C240.684 2.02861 239.85 1.88368 238.727 1.84745V0.760498C239.705 0.796729 241.01 0.83296 242.64 0.869191C244.271 0.905422 246.01 0.923539 247.857 0.923539C249.452 0.923539 251.028 0.905422 252.586 0.869191C254.18 0.83296 255.484 0.796729 256.499 0.760498Z" fill="#3C2008"/>
<path d="M200.354 0.760498C201.333 0.796729 202.637 0.83296 204.268 0.869191C205.898 0.905422 207.528 0.923539 209.159 0.923539C210.934 0.923539 212.637 0.905422 214.268 0.869191C215.934 0.83296 217.112 0.814845 217.8 0.814845C221.351 0.814845 224.268 1.17716 226.55 1.9018C228.869 2.62644 230.608 3.69528 231.768 5.10832C232.927 6.48513 233.507 8.20615 233.507 10.2714C233.507 11.5757 233.235 12.8619 232.691 14.1301C232.184 15.3619 231.297 16.5032 230.028 17.554C228.797 18.6047 227.075 19.438 224.865 20.054C222.691 20.6699 219.938 20.9779 216.604 20.9779H211.387V19.8909H216.061C218.054 19.8909 219.557 19.4924 220.572 18.6953C221.623 17.8619 222.329 16.775 222.691 15.4344C223.09 14.0576 223.289 12.5359 223.289 10.8692C223.289 8.00687 222.836 5.79673 221.931 4.23875C221.025 2.64455 219.485 1.84745 217.311 1.84745C215.97 1.84745 215.101 2.15542 214.702 2.77137C214.34 3.38731 214.159 4.63731 214.159 6.52136V33.4779C214.159 34.7822 214.249 35.7605 214.431 36.4127C214.648 37.0648 215.028 37.4996 215.572 37.717C216.152 37.9344 217.003 38.0793 218.126 38.1518V39.2388C217.112 39.1663 215.807 39.1301 214.213 39.1301C212.655 39.0938 211.079 39.0757 209.485 39.0757C207.637 39.0757 205.898 39.0938 204.268 39.1301C202.637 39.1301 201.333 39.1663 200.354 39.2388V38.1518C201.478 38.0793 202.311 37.9344 202.854 37.717C203.434 37.4996 203.815 37.0648 203.996 36.4127C204.213 35.7605 204.322 34.7822 204.322 33.4779V6.52136C204.322 5.18078 204.213 4.20252 203.996 3.58658C203.815 2.93441 203.434 2.49963 202.854 2.28224C202.311 2.02861 201.478 1.88368 200.354 1.84745V0.760498ZM211.17 20.054C212.583 20.0902 213.869 20.1627 215.028 20.2714C216.188 20.3801 217.22 20.4888 218.126 20.5974C219.068 20.6699 219.883 20.7243 220.572 20.7605C224.159 20.9779 226.822 21.6663 228.561 22.8257C230.336 23.9489 231.46 25.6337 231.931 27.8801L233.072 33.5322C233.398 34.909 233.742 35.8873 234.104 36.467C234.467 37.0105 234.974 37.2641 235.626 37.2279C236.025 37.2279 236.369 37.1554 236.659 37.0105C236.949 36.8293 237.239 36.5757 237.528 36.2496L238.289 36.9561C237.239 38.0793 236.097 38.8583 234.865 39.2931C233.633 39.7641 232.202 39.9996 230.572 39.9996C228.434 39.9996 226.677 39.583 225.3 38.7496C223.96 37.9163 223.108 36.3764 222.746 34.1301L221.822 28.6953C221.604 27.2098 221.315 25.8873 220.952 24.7279C220.626 23.5685 220.173 22.6627 219.594 22.0105C219.014 21.3221 218.199 20.9779 217.148 20.9779H211.278L211.17 20.054Z" fill="#3C2008"/>
<path d="M177.107 0C181.092 0 184.571 0.778987 187.542 2.33696C190.513 3.89493 192.813 6.14131 194.444 9.07609C196.111 11.9746 196.944 15.5072 196.944 19.6739C196.944 23.7319 196.092 27.2826 194.389 30.3261C192.723 33.3696 190.386 35.7428 187.379 37.4457C184.371 39.1486 180.929 40 177.053 40C173.103 40 169.625 39.221 166.618 37.663C163.647 36.1051 161.328 33.8587 159.661 30.9239C158.031 27.9891 157.216 24.4565 157.216 20.3261C157.216 16.2681 158.067 12.7174 159.77 9.67391C161.509 6.63044 163.864 4.25725 166.835 2.55435C169.806 0.851451 173.23 0 177.107 0ZM176.89 0.978262C174.969 0.978262 173.303 1.79348 171.889 3.42391C170.476 5.05435 169.371 7.30073 168.574 10.163C167.813 13.0254 167.433 16.3406 167.433 20.1087C167.433 23.9493 167.868 27.3007 168.737 30.163C169.643 32.9891 170.839 35.1812 172.324 36.7391C173.81 38.2609 175.458 39.0217 177.27 39.0217C179.19 39.0217 180.857 38.2065 182.27 36.5761C183.719 34.9457 184.824 32.6993 185.585 29.837C186.346 26.9384 186.726 23.6232 186.726 19.8913C186.726 16.0145 186.292 12.663 185.422 9.83696C184.553 7.01087 183.357 4.83696 181.835 3.31522C180.35 1.75725 178.701 0.978262 176.89 0.978262Z" fill="#3C2008"/>
<path d="M137.1 0C139.6 0 141.648 0.344204 143.242 1.03261C144.836 1.72102 146.267 2.55435 147.535 3.53261C147.934 3.8587 148.296 4.02174 148.622 4.02174C149.311 4.02174 149.764 2.93479 149.981 0.760874H151.231C151.158 2.17392 151.104 3.91305 151.068 5.97826C151.032 8.04348 151.014 10.7609 151.014 14.1304H149.764C149.51 11.7391 149.093 9.71015 148.514 8.04348C147.934 6.34058 146.829 4.89131 145.198 3.69565C144.365 3.00725 143.369 2.48189 142.209 2.11957C141.086 1.72102 139.963 1.52174 138.84 1.52174C136.811 1.52174 135.09 2.08334 133.677 3.20652C132.3 4.29348 131.177 5.74276 130.307 7.55435C129.437 9.32971 128.803 11.3225 128.405 13.5326C128.043 15.7065 127.861 17.8986 127.861 20.1087C127.861 26.6304 128.695 31.3949 130.361 34.4022C132.064 37.4094 134.419 38.913 137.427 38.913C138.151 38.913 138.785 38.8406 139.329 38.6956C139.872 38.5145 140.325 38.2971 140.687 38.0435C141.158 37.7174 141.485 37.337 141.666 36.9022C141.847 36.4674 141.937 35.9239 141.937 35.2717V29.8913C141.937 28.1884 141.793 26.9203 141.503 26.087C141.213 25.2174 140.669 24.6377 139.872 24.3478C139.111 24.0217 137.97 23.8406 136.448 23.8043V22.7174C137.245 22.7536 138.206 22.7899 139.329 22.8261C140.452 22.8261 141.629 22.8442 142.861 22.8804C144.093 22.8804 145.235 22.8804 146.285 22.8804C147.916 22.8804 149.401 22.8623 150.742 22.8261C152.119 22.7899 153.242 22.7536 154.111 22.7174V23.8043C153.459 23.8406 152.952 23.9674 152.59 24.1848C152.264 24.4022 152.046 24.837 151.937 25.4891C151.829 26.1413 151.774 27.1377 151.774 28.4783V39.2391H150.687C150.651 38.6232 150.506 37.9529 150.253 37.2283C149.999 36.5036 149.582 36.1413 149.003 36.1413C148.749 36.1413 148.387 36.2138 147.916 36.3587C147.445 36.5036 146.702 36.8297 145.687 37.337C144.347 38.0616 142.898 38.6957 141.34 39.2391C139.818 39.7464 138.26 40 136.666 40C132.282 40 128.604 39.221 125.633 37.663C122.698 36.1051 120.488 33.8768 119.003 30.9783C117.517 28.0435 116.774 24.5109 116.774 20.3804C116.774 16.2862 117.644 12.7174 119.383 9.67391C121.122 6.63044 123.514 4.25725 126.557 2.55435C129.637 0.851451 133.151 0 137.1 0Z" fill="#3C2008"/>
<path d="M113.528 0.760498V1.84745C112.442 2.02861 111.608 2.37281 111.028 2.88006C110.449 3.38731 110.05 4.16629 109.833 5.21702C109.652 6.26774 109.561 7.75325 109.561 9.67354V39.2931C109.09 39.2206 108.583 39.1844 108.039 39.1844C107.496 39.1844 106.916 39.2206 106.3 39.2931L82.4415 11.1953V29.4561C82.4415 31.6663 82.5502 33.3692 82.7676 34.5648C82.985 35.7243 83.4741 36.5576 84.235 37.0648C84.9959 37.5721 86.1915 37.9344 87.8219 38.1518V39.2388C87.1335 39.1663 86.2096 39.1301 85.0502 39.1301C83.927 39.0938 82.8582 39.0757 81.8437 39.0757C81.0466 39.0757 80.2133 39.0938 79.3437 39.1301C78.5104 39.1301 77.8038 39.1663 77.2241 39.2388V38.1518C78.3835 37.9344 79.235 37.5902 79.7785 37.1192C80.3582 36.6119 80.7386 35.833 80.9198 34.7822C81.1009 33.6953 81.1915 32.2098 81.1915 30.3257V6.52136C81.1915 5.18078 81.1009 4.20252 80.9198 3.58658C80.7386 2.93441 80.3582 2.49963 79.7785 2.28224C79.1988 2.02861 78.3473 1.88368 77.2241 1.84745V0.760498C77.8038 0.796729 78.5104 0.83296 79.3437 0.869191C80.2133 0.905422 81.0466 0.923539 81.8437 0.923539C82.7495 0.923539 83.619 0.905422 84.4524 0.869191C85.2857 0.83296 86.0466 0.796729 86.735 0.760498L108.311 25.4344V10.5431C108.311 8.33296 108.202 6.64818 107.985 5.48876C107.804 4.2931 107.333 3.44166 106.572 2.93441C105.847 2.39093 104.634 2.02861 102.931 1.84745V0.760498C103.655 0.796729 104.579 0.83296 105.702 0.869191C106.862 0.905422 107.931 0.923539 108.909 0.923539C109.778 0.923539 110.63 0.905422 111.463 0.869191C112.297 0.83296 112.985 0.796729 113.528 0.760498Z" fill="#3C2008"/>
<path d="M53.9221 0C57.9076 0 61.3858 0.778987 64.3568 2.33696C67.3279 3.89493 69.6286 6.14131 71.259 9.07609C72.9257 11.9746 73.759 15.5072 73.759 19.6739C73.759 23.7319 72.9076 27.2826 71.2047 30.3261C69.538 33.3696 67.201 35.7428 64.1938 37.4457C61.1866 39.1486 57.7445 40 53.8677 40C49.9184 40 46.4402 39.221 43.4329 37.663C40.4619 36.1051 38.1431 33.8587 36.4764 30.9239C34.846 27.9891 34.0308 24.4565 34.0308 20.3261C34.0308 16.2681 34.8822 12.7174 36.5851 9.67391C38.3242 6.63044 40.6793 4.25725 43.6503 2.55435C46.6213 0.851451 50.0453 0 53.9221 0ZM53.7047 0.978262C51.7844 0.978262 50.1177 1.79348 48.7047 3.42391C47.2916 5.05435 46.1866 7.30073 45.3895 10.163C44.6286 13.0254 44.2482 16.3406 44.2482 20.1087C44.2482 23.9493 44.6829 27.3007 45.5525 30.163C46.4583 32.9891 47.654 35.1812 49.1395 36.7391C50.625 38.2609 52.2735 39.0217 54.0851 39.0217C56.0054 39.0217 57.6721 38.2065 59.0851 36.5761C60.5344 34.9457 61.6395 32.6993 62.4003 29.837C63.1612 26.9384 63.5416 23.6232 63.5416 19.8913C63.5416 16.0145 63.1068 12.663 62.2373 9.83696C61.3677 7.01087 60.1721 4.83696 58.6503 3.31522C57.1648 1.75725 55.5163 0.978262 53.7047 0.978262Z" fill="#3C2008"/>
<path d="M18.2065 0.760498V1.84745C16.9746 1.88368 16.0326 2.02861 15.3804 2.28224C14.7645 2.49963 14.3478 2.93441 14.1304 3.58658C13.913 4.20252 13.8043 5.18078 13.8043 6.52136V34.3475C13.8043 35.3982 13.8768 36.1953 14.0217 36.7388C14.2029 37.246 14.5109 37.5902 14.9457 37.7714C15.3804 37.9163 16.0326 37.9888 16.9022 37.9888H19.1304C20.2174 37.9888 21.3043 37.6627 22.3913 37.0105C23.4783 36.3583 24.4928 35.4525 25.4348 34.2931C26.3768 33.0975 27.192 31.7388 27.8804 30.217C28.5688 28.659 29.058 26.9924 29.3478 25.217H30.5978C30.4891 26.4851 30.4348 28.1156 30.4348 30.1083C30.4348 31.0141 30.4529 32.3185 30.4891 34.0214C30.5254 35.688 30.6341 37.4272 30.8152 39.2388C28.9674 39.1663 26.8841 39.1301 24.5652 39.1301C22.2464 39.0938 20.1812 39.0757 18.3696 39.0757C17.4275 39.0757 16.2319 39.0757 14.7826 39.0757C13.3333 39.0757 11.7572 39.0938 10.0543 39.1301C8.35145 39.1301 6.63043 39.1482 4.8913 39.1844C3.15217 39.1844 1.52174 39.2025 0 39.2388V38.1518C1.12319 38.0793 1.95652 37.9344 2.5 37.717C3.07971 37.4996 3.46014 37.0648 3.6413 36.4127C3.8587 35.7605 3.96739 34.7822 3.96739 33.4779V6.52136C3.96739 5.18078 3.8587 4.20252 3.6413 3.58658C3.46014 2.93441 3.07971 2.49963 2.5 2.28224C1.95652 2.02861 1.12319 1.88368 0 1.84745V0.760498C0.978261 0.796729 2.28261 0.83296 3.91304 0.869191C5.54348 0.905422 7.28261 0.923539 9.13043 0.923539C10.8333 0.923539 12.5 0.905422 14.1304 0.869191C15.7609 0.83296 17.1196 0.796729 18.2065 0.760498Z" fill="#3C2008"/>
</svg>
