<svg width="207" height="28" viewBox="0 0 207 28" fill="none" xmlns="http://www.w3.org/2000/svg">
<path d="M195.287 0.494141L204.493 24.2713C204.874 25.159 205.267 25.7804 205.673 26.1354C206.104 26.4905 206.484 26.6807 206.814 26.7061V27.467C206.002 27.4162 205.026 27.3909 203.885 27.3909C202.769 27.3655 201.627 27.3528 200.461 27.3528C199.243 27.3528 198.089 27.3655 196.999 27.3909C195.908 27.3909 195.033 27.4162 194.374 27.467V26.7061C195.667 26.6554 196.491 26.4398 196.846 26.0594C197.202 25.6536 197.125 24.8039 196.618 23.5104L190.303 6.23871L191.064 5.0974L185.51 19.4398C184.926 20.9615 184.571 22.1916 184.444 23.13C184.317 24.0684 184.381 24.7912 184.635 25.2985C184.888 25.8057 185.281 26.1608 185.814 26.3637C186.372 26.5666 187.031 26.6807 187.792 26.7061V27.467C186.904 27.4162 186.08 27.3909 185.319 27.3909C184.584 27.3655 183.785 27.3528 182.923 27.3528C182.415 27.3528 181.895 27.3655 181.363 27.3909C180.856 27.3909 180.412 27.4162 180.031 27.467V26.7061C180.589 26.6046 181.147 26.2496 181.705 25.6409C182.288 25.0322 182.859 23.9796 183.417 22.4833L191.977 0.494141C192.484 0.544866 193.029 0.570229 193.613 0.570229C194.221 0.570229 194.779 0.544866 195.287 0.494141ZM197.265 16.5104V17.2713H185.928L186.308 16.5104H197.265Z" fill="#A9C298"/>
<path d="M179.549 0.532715V1.29358C178.763 1.31895 178.167 1.42039 177.761 1.59793C177.355 1.7501 177.089 2.05445 176.962 2.51097C176.835 2.94213 176.772 3.62692 176.772 4.56532V23.4349C176.772 24.3479 176.835 25.0327 176.962 25.4892C177.114 25.9458 177.381 26.2501 177.761 26.4023C178.167 26.5545 178.763 26.6559 179.549 26.7066V27.4675C178.839 27.4168 177.926 27.3914 176.81 27.3914C175.719 27.366 174.616 27.3534 173.5 27.3534C172.207 27.3534 170.989 27.366 169.848 27.3914C168.707 27.3914 167.794 27.4168 167.109 27.4675V26.7066C167.895 26.6559 168.478 26.5545 168.859 26.4023C169.265 26.2501 169.531 25.9458 169.658 25.4892C169.81 25.0327 169.886 24.3479 169.886 23.4349V4.56532C169.886 3.62692 169.81 2.94213 169.658 2.51097C169.531 2.05445 169.265 1.7501 168.859 1.59793C168.478 1.42039 167.895 1.31895 167.109 1.29358V0.532715C167.794 0.558077 168.707 0.583438 169.848 0.6088C170.989 0.634162 172.207 0.646843 173.5 0.646843C174.616 0.646843 175.719 0.634162 176.81 0.6088C177.926 0.583438 178.839 0.558077 179.549 0.532715Z" fill="#A9C298"/>
<path d="M140.248 0.532715C140.933 0.558077 141.846 0.583438 142.987 0.6088C144.128 0.634162 145.27 0.646843 146.411 0.646843C147.654 0.646843 148.846 0.634162 149.987 0.6088C151.154 0.583438 151.978 0.570757 152.46 0.570757C154.946 0.570757 156.987 0.82438 158.585 1.33163C160.208 1.83887 161.426 2.58706 162.237 3.57619C163.049 4.53996 163.455 5.74467 163.455 7.19032C163.455 8.10336 163.264 9.00373 162.884 9.89141C162.529 10.7537 161.907 11.5526 161.02 12.2881C160.157 13.0237 158.953 13.607 157.406 14.0381C155.884 14.4693 153.956 14.6849 151.623 14.6849H147.971V13.924H151.243C152.638 13.924 153.69 13.645 154.4 13.0871C155.136 12.5037 155.63 11.7429 155.884 10.8045C156.163 9.84068 156.302 8.77547 156.302 7.6088C156.302 5.60518 155.985 4.05808 155.351 2.96749C154.717 1.85155 153.639 1.29358 152.118 1.29358C151.179 1.29358 150.571 1.50916 150.292 1.94032C150.038 2.37148 149.911 3.24648 149.911 4.56532V23.4349C149.911 24.3479 149.974 25.0327 150.101 25.4892C150.253 25.9458 150.52 26.2501 150.9 26.4023C151.306 26.5544 151.902 26.6559 152.688 26.7066V27.4675C151.978 27.4168 151.065 27.3914 149.949 27.3914C148.859 27.366 147.755 27.3534 146.639 27.3534C145.346 27.3534 144.128 27.366 142.987 27.3914C141.846 27.3914 140.933 27.4168 140.248 27.4675V26.7066C141.034 26.6559 141.618 26.5544 141.998 26.4023C142.404 26.2501 142.67 25.9458 142.797 25.4892C142.949 25.0327 143.025 24.3479 143.025 23.4349V4.56532C143.025 3.62691 142.949 2.94213 142.797 2.51097C142.67 2.05445 142.404 1.7501 141.998 1.59793C141.618 1.42039 141.034 1.31895 140.248 1.29358V0.532715ZM147.819 14.0381C148.808 14.0635 149.708 14.1142 150.52 14.1903C151.331 14.2664 152.054 14.3425 152.688 14.4186C153.348 14.4693 153.918 14.5073 154.4 14.5327C156.911 14.6849 158.775 15.1668 159.993 15.9784C161.235 16.7646 162.022 17.9439 162.351 19.5164L163.15 23.4729C163.378 24.4367 163.619 25.1215 163.873 25.5273C164.127 25.9077 164.482 26.0852 164.938 26.0599C165.217 26.0599 165.458 26.0092 165.661 25.9077C165.864 25.7809 166.067 25.6034 166.27 25.3751L166.802 25.8697C166.067 26.6559 165.268 27.2012 164.406 27.5055C163.543 27.8352 162.542 28.0001 161.4 28.0001C159.904 28.0001 158.674 27.7084 157.71 27.1251C156.772 26.5418 156.176 25.4639 155.922 23.8914L155.275 20.0871C155.123 19.0472 154.92 18.1215 154.667 17.3099C154.438 16.4983 154.121 15.8642 153.715 15.4077C153.31 14.9258 152.739 14.6849 152.003 14.6849H147.895L147.819 14.0381Z" fill="#A9C298"/>
<path d="M123.975 0C126.765 0 129.2 0.545291 131.279 1.63587C133.359 2.72645 134.97 4.29891 136.111 6.35326C137.277 8.38225 137.861 10.8551 137.861 13.7717C137.861 16.6123 137.265 19.0978 136.073 21.2283C134.906 23.3587 133.27 25.0199 131.165 26.212C129.06 27.404 126.651 28 123.937 28C121.172 28 118.738 27.4547 116.633 26.3641C114.553 25.2736 112.93 23.7011 111.763 21.6467C110.622 19.5924 110.051 17.1196 110.051 14.2283C110.051 11.3877 110.647 8.90217 111.839 6.77174C113.056 4.6413 114.705 2.98007 116.785 1.78805C118.864 0.596016 121.261 0 123.975 0ZM123.823 0.684784C122.479 0.684784 121.312 1.25544 120.323 2.39674C119.334 3.53804 118.56 5.11051 118.002 7.11413C117.47 9.11775 117.203 11.4384 117.203 14.0761C117.203 16.7645 117.508 19.1105 118.116 21.1141C118.75 23.0924 119.587 24.6268 120.627 25.7174C121.667 26.7826 122.821 27.3152 124.089 27.3152C125.433 27.3152 126.6 26.7446 127.589 25.6033C128.604 24.462 129.377 22.8895 129.91 20.8859C130.442 18.8569 130.709 16.5362 130.709 13.9239C130.709 11.2101 130.404 8.86413 129.796 6.88587C129.187 4.90761 128.35 3.38587 127.285 2.32065C126.245 1.23007 125.091 0.684784 123.823 0.684784Z" fill="#A9C298"/>
<path d="M95.9704 0C97.7204 0 99.1534 0.240943 100.269 0.722828C101.385 1.20471 102.387 1.78805 103.275 2.47283C103.554 2.70109 103.807 2.81522 104.036 2.81522C104.518 2.81522 104.835 2.05435 104.987 0.532612H105.862C105.811 1.52174 105.773 2.73913 105.748 4.18478C105.722 5.63044 105.71 7.53261 105.71 9.89131H104.835C104.657 8.21739 104.365 6.7971 103.96 5.63044C103.554 4.43841 102.78 3.42391 101.639 2.58696C101.056 2.10507 100.358 1.73732 99.5465 1.4837C98.7603 1.20471 97.9741 1.06522 97.1878 1.06522C95.7676 1.06522 94.5628 1.45833 93.5737 2.24457C92.6099 3.00544 91.8237 4.01993 91.215 5.28805C90.6063 6.5308 90.1625 7.92573 89.8835 9.47283C89.6299 10.9946 89.5031 12.529 89.5031 14.0761C89.5031 18.6413 90.0864 21.9764 91.2531 24.0815C92.4451 26.1866 94.0936 27.2391 96.1987 27.2391C96.706 27.2391 97.1498 27.1884 97.5302 27.087C97.9107 26.9601 98.2277 26.808 98.4813 26.6304C98.811 26.4022 99.0393 26.1359 99.1661 25.8315C99.2929 25.5272 99.3563 25.1467 99.3563 24.6902V20.9239C99.3563 19.7319 99.2549 18.8442 99.052 18.2609C98.8491 17.6522 98.4686 17.2464 97.9107 17.0435C97.3781 16.8152 96.5791 16.6884 95.5139 16.663V15.9022C96.0719 15.9275 96.744 15.9529 97.5302 15.9783C98.3165 15.9783 99.1407 15.9909 100.003 16.0163C100.865 16.0163 101.664 16.0163 102.4 16.0163C103.541 16.0163 104.581 16.0036 105.519 15.9783C106.483 15.9529 107.269 15.9275 107.878 15.9022V16.663C107.422 16.6884 107.066 16.7772 106.813 16.9293C106.585 17.0815 106.432 17.3859 106.356 17.8424C106.28 18.2989 106.242 18.9964 106.242 19.9348V27.4674H105.481C105.456 27.0362 105.355 26.567 105.177 26.0598C104.999 25.5525 104.708 25.2989 104.302 25.2989C104.124 25.2989 103.871 25.3496 103.541 25.4511C103.211 25.5525 102.691 25.7808 101.981 26.1359C101.043 26.6431 100.028 27.087 98.9378 27.4674C97.8726 27.8225 96.782 28 95.6661 28C92.5973 28 90.023 27.4547 87.9433 26.3641C85.8889 25.2736 84.3418 23.7138 83.302 21.6848C82.2621 19.6304 81.7422 17.1576 81.7422 14.2663C81.7422 11.4004 82.3509 8.90217 83.5683 6.77174C84.7857 4.6413 86.4596 2.98007 88.59 1.78805C90.7458 0.596016 93.206 0 95.9704 0Z" fill="#A9C298"/>
<path d="M79.4699 0.532715V1.29358C78.7091 1.4204 78.1257 1.66134 77.7199 2.01641C77.3141 2.37148 77.0351 2.91677 76.883 3.65228C76.7562 4.38779 76.6928 5.42764 76.6928 6.77184V27.5055C76.363 27.4548 76.008 27.4294 75.6275 27.4294C75.2471 27.4294 74.8413 27.4548 74.4101 27.5055L57.7091 7.83706V20.6197C57.7091 22.1668 57.7851 23.3588 57.9373 24.1958C58.0895 25.0074 58.4319 25.5907 58.9645 25.9458C59.4971 26.3008 60.3341 26.5545 61.4754 26.7066V27.4675C60.9935 27.4168 60.3467 27.3914 59.5351 27.3914C58.7489 27.366 58.0007 27.3534 57.2906 27.3534C56.7326 27.3534 56.1493 27.366 55.5406 27.3914C54.9572 27.3914 54.4627 27.4168 54.0569 27.4675V26.7066C54.8685 26.5545 55.4645 26.3135 55.8449 25.9838C56.2507 25.6287 56.517 25.0834 56.6438 24.3479C56.7707 23.5871 56.8341 22.5472 56.8341 21.2284V4.56532C56.8341 3.62692 56.7707 2.94213 56.6438 2.51097C56.517 2.05445 56.2507 1.7501 55.8449 1.59793C55.4391 1.42039 54.8431 1.31895 54.0569 1.29358V0.532715C54.4627 0.558077 54.9572 0.583438 55.5406 0.6088C56.1493 0.634162 56.7326 0.646843 57.2906 0.646843C57.9246 0.646843 58.5333 0.634162 59.1167 0.6088C59.7 0.583438 60.2326 0.558077 60.7145 0.532715L75.8178 17.8045V7.38054C75.8178 5.83344 75.7417 4.65409 75.5895 3.84249C75.4627 3.00554 75.133 2.40952 74.6004 2.05445C74.0931 1.67402 73.2435 1.4204 72.0514 1.29358V0.532715C72.5587 0.558077 73.2054 0.583438 73.9917 0.6088C74.8033 0.634162 75.5514 0.646843 76.2362 0.646843C76.8449 0.646843 77.4409 0.634162 78.0243 0.6088C78.6076 0.583438 79.0895 0.558077 79.4699 0.532715Z" fill="#A9C298"/>
<path d="M37.7454 0C40.5353 0 42.9701 0.545291 45.0498 1.63587C47.1295 2.72645 48.74 4.29891 49.8813 6.35326C51.048 8.38225 51.6313 10.8551 51.6313 13.7717C51.6313 16.6123 51.0353 19.0978 49.8433 21.2283C48.6766 23.3587 47.0407 25.0199 44.9357 26.212C42.8306 27.404 40.4212 28 37.7074 28C34.9429 28 32.5081 27.4547 30.4031 26.3641C28.3233 25.2736 26.7002 23.7011 25.5335 21.6467C24.3922 19.5924 23.8215 17.1196 23.8215 14.2283C23.8215 11.3877 24.4175 8.90217 25.6096 6.77174C26.827 4.6413 28.4755 2.98007 30.5552 1.78805C32.6349 0.596016 35.0317 0 37.7454 0ZM37.5933 0.684784C36.2491 0.684784 35.0824 1.25544 34.0933 2.39674C33.1041 3.53804 32.3306 5.11051 31.7726 7.11413C31.24 9.11775 30.9737 11.4384 30.9737 14.0761C30.9737 16.7645 31.2781 19.1105 31.8868 21.1141C32.5208 23.0924 33.3578 24.6268 34.3976 25.7174C35.4375 26.7826 36.5915 27.3152 37.8596 27.3152C39.2038 27.3152 40.3704 26.7446 41.3596 25.6033C42.3741 24.462 43.1476 22.8895 43.6802 20.8859C44.2128 18.8569 44.4791 16.5362 44.4791 13.9239C44.4791 11.2101 44.1748 8.86413 43.5661 6.88587C42.9574 4.90761 42.1204 3.38587 41.0552 2.32065C40.0154 1.23007 38.8614 0.684784 37.5933 0.684784Z" fill="#A9C298"/>
<path d="M12.7446 0.532715V1.29358C11.8822 1.31895 11.2228 1.42039 10.7663 1.59793C10.3351 1.7501 10.0435 2.05445 9.8913 2.51097C9.73913 2.94213 9.66304 3.62692 9.66304 4.56532V24.0436C9.66304 24.7791 9.71377 25.3371 9.81522 25.7175C9.94203 26.0726 10.1576 26.3135 10.462 26.4403C10.7663 26.5418 11.2228 26.5925 11.8315 26.5925H13.3913C14.1522 26.5925 14.913 26.3642 15.6739 25.9077C16.4348 25.4512 17.1449 24.8171 17.8043 24.0055C18.4638 23.1686 19.0344 22.2175 19.5163 21.1523C19.9982 20.0617 20.3406 18.895 20.5435 17.6523H21.4185C21.3424 18.54 21.3043 19.6813 21.3043 21.0762C21.3043 21.7102 21.317 22.6233 21.3424 23.8153C21.3678 24.982 21.4438 26.1994 21.5707 27.4675C20.2772 27.4168 18.8188 27.3914 17.1957 27.3914C15.5725 27.366 14.1268 27.3534 12.8587 27.3534C12.1993 27.3534 11.3623 27.3534 10.3478 27.3534C9.33333 27.3534 8.23007 27.366 7.03804 27.3914C5.84601 27.3914 4.6413 27.4041 3.42391 27.4295C2.20652 27.4295 1.06522 27.4421 0 27.4675V26.7066C0.786232 26.6559 1.36957 26.5545 1.75 26.4023C2.1558 26.2501 2.4221 25.9458 2.54891 25.4892C2.70109 25.0327 2.77717 24.3479 2.77717 23.4349V4.56532C2.77717 3.62692 2.70109 2.94213 2.54891 2.51097C2.4221 2.05445 2.1558 1.7501 1.75 1.59793C1.36957 1.42039 0.786232 1.31895 0 1.29358V0.532715C0.684783 0.558077 1.59783 0.583438 2.73913 0.6088C3.88043 0.634162 5.09783 0.646843 6.3913 0.646843C7.58333 0.646843 8.75 0.634162 9.8913 0.6088C11.0326 0.583438 11.9837 0.558077 12.7446 0.532715Z" fill="#A9C298"/>
</svg>
