<svg width="64" height="64" viewBox="0 0 64 64" fill="none" xmlns="http://www.w3.org/2000/svg">
<rect width="64" height="64" rx="32" fill="url(#paint0_linear_4418_783)"/>
<path d="M4 32C4 16.536 16.536 4 32 4C47.464 4 60 16.536 60 32C60 47.464 47.464 60 32 60C16.536 60 4 47.464 4 32Z" fill="#678F4D"/>
<path d="M42.066 32.5835C41.366 33.2668 40.966 34.2502 41.066 35.3002C41.216 37.1002 42.866 38.4168 44.666 38.4168H47.8327V40.4002C47.8327 43.8502 45.016 46.6669 41.566 46.6669H24.716C25.2327 46.2335 25.6827 45.7002 26.0327 45.1002C26.6493 44.1002 26.9993 42.9169 26.9993 41.6669C26.9993 37.9835 24.016 35.0002 20.3327 35.0002C18.766 35.0002 17.316 35.5502 16.166 36.4669V29.1836C16.166 25.7336 18.9827 22.9169 22.4327 22.9169H41.566C45.016 22.9169 47.8327 25.7336 47.8327 29.1836V31.5836H44.466C43.5327 31.5836 42.6827 31.9502 42.066 32.5835Z" stroke="white" stroke-width="2" stroke-linecap="round" stroke-linejoin="round"/>
<path d="M16.166 30.6835V23.067C16.166 21.0836 17.3827 19.3169 19.2327 18.6169L32.466 13.6169C34.5327 12.8336 36.7494 14.3669 36.7494 16.5836V22.9169" stroke="white" stroke-width="2" stroke-linecap="round" stroke-linejoin="round"/>
<path d="M49.5974 33.2838V36.7172C49.5974 37.6339 48.864 38.3838 47.9307 38.4172H44.664C42.864 38.4172 41.214 37.1005 41.064 35.3005C40.964 34.2505 41.364 33.2672 42.064 32.5838C42.6807 31.9505 43.5307 31.5839 44.464 31.5839H47.9307C48.864 31.6172 49.5974 32.3671 49.5974 33.2838Z" stroke="white" stroke-width="2" stroke-linecap="round" stroke-linejoin="round"/>
<path d="M23.666 30.0002H35.3327" stroke="white" stroke-width="2" stroke-linecap="round" stroke-linejoin="round"/>
<path d="M26.9993 41.6669C26.9993 42.9169 26.6493 44.1002 26.0327 45.1002C25.6827 45.7002 25.2327 46.2336 24.716 46.6669C23.5494 47.7169 22.016 48.3336 20.3327 48.3336C17.8993 48.3336 15.7827 47.0336 14.6327 45.1002C14.016 44.1002 13.666 42.9169 13.666 41.6669C13.666 39.5669 14.6327 37.6836 16.166 36.4669C17.316 35.5503 18.766 35.0002 20.3327 35.0002C24.016 35.0002 26.9993 37.9836 26.9993 41.6669Z" stroke="white" stroke-width="2" stroke-miterlimit="10" stroke-linecap="round" stroke-linejoin="round"/>
<path d="M17.7344 41.6661L19.3844 43.3161L22.9344 40.0328" stroke="white" stroke-width="2" stroke-linecap="round" stroke-linejoin="round"/>
<defs>
<linearGradient id="paint0_linear_4418_783" x1="53.4857" y1="0.914288" x2="10" y2="59.5" gradientUnits="userSpaceOnUse">
<stop stop-color="white" stop-opacity="0.13"/>
<stop offset="1" stop-color="white"/>
</linearGradient>
</defs>
</svg>
