<svg width="24" height="24" viewBox="0 0 24 24" fill="none" xmlns="http://www.w3.org/2000/svg">
<path d="M12 0C18.6274 0 24 5.37258 24 12C24 18.6274 18.6274 24 12 24C5.37258 24 0 18.6274 0 12C0 5.37258 5.37258 0 12 0ZM12.4175 14.3662C12.4175 15.4263 11.5827 16.2973 10.5439 16.2974C9.50515 16.2974 8.67041 15.4264 8.67041 14.3662C8.6705 13.3251 9.48664 12.4734 10.4883 12.4355V10.2017C8.2809 10.2395 6.50009 12.0756 6.5 14.3662C6.5 16.6758 8.31797 18.5312 10.5625 18.5312C12.807 18.5312 14.625 16.6569 14.625 14.3662V9.8042C15.4412 10.4099 16.4428 10.7696 17.5 10.7886V8.55469C15.8676 8.49789 14.5879 7.13469 14.5879 5.46875H12.4175V14.3662Z" fill="white"/>
</svg>
