<svg width="32" height="32" viewBox="0 0 32 32" fill="none" xmlns="http://www.w3.org/2000/svg">
<path d="M16 0C24.8366 0 32 7.16344 32 16C32 24.8366 24.8366 32 16 32C7.16344 32 0 24.8366 0 16C0 7.16344 7.16344 0 16 0ZM16.5566 19.1549C16.5566 20.5685 15.4436 21.7297 14.0586 21.7298C12.6735 21.7298 11.5605 20.5685 11.5605 19.1549C11.5607 17.7668 12.6488 16.6312 13.9844 16.5807V13.6022C11.0412 13.6527 8.66678 16.1008 8.66667 19.1549C8.66667 22.2345 11.0906 24.7083 14.0833 24.7083C17.0759 24.7083 19.5 22.2092 19.5 19.1549V13.0723C20.5882 13.8799 21.9237 14.3595 23.3333 14.3848V11.4062C21.1568 11.3305 19.4505 9.51292 19.4505 7.29167H16.5566V19.1549Z" fill="#3C2008"/>
</svg>
