<svg width="24" height="24" viewBox="0 0 24 24" fill="none" xmlns="http://www.w3.org/2000/svg">
<g clip-path="url(#clip0_4036_324)">
<path d="M14.4093 11.9997L10.5049 9.75146V14.2479L14.4093 11.9997Z" fill="white"/>
<path fill-rule="evenodd" clip-rule="evenodd" d="M12 24C18.6275 24 24 18.6275 24 12C24 5.37258 18.6275 0 12 0C5.37258 0 0 5.37258 0 12C0 18.6275 5.37258 24 12 24ZM19.1911 8.39295C19.0181 7.75058 18.5115 7.24411 17.869 7.07118C16.6952 6.75 12 6.75 12 6.75C12 6.75 7.30477 6.75 6.13096 7.05883C5.50082 7.23176 4.98187 7.75058 4.8089 8.39295C4.5 9.56647 4.5 12 4.5 12C4.5 12 4.5 14.4459 4.8089 15.607C4.98187 16.2494 5.48846 16.7559 6.13096 16.9289C7.31712 17.25 12 17.25 12 17.25C12 17.25 16.6952 17.25 17.869 16.9412C18.5115 16.7682 19.0181 16.2618 19.1911 15.6194C19.4999 14.4459 19.4999 12.0124 19.4999 12.0124C19.4999 12.0124 19.5123 9.56647 19.1911 8.39295Z" fill="white"/>
</g>
<defs>
<clipPath id="clip0_4036_324">
<rect width="24" height="24" fill="white"/>
</clipPath>
</defs>
</svg>
