<svg width="32" height="32" viewBox="0 0 32 32" fill="none" xmlns="http://www.w3.org/2000/svg">
<g clip-path="url(#clip0_4294_296)">
<path d="M19.2127 15.9996L14.0068 13.002V18.9972L19.2127 15.9996Z" fill="#3C2008"/>
<path fill-rule="evenodd" clip-rule="evenodd" d="M16 32C24.8366 32 32 24.8366 32 16C32 7.16344 24.8366 0 16 0C7.16344 0 0 7.16344 0 16C0 24.8366 7.16344 32 16 32ZM25.5881 11.1906C25.3574 10.3341 24.682 9.65882 23.8253 9.42824C22.2602 9 16 9 16 9C16 9 9.73969 9 8.17462 9.41177C7.33443 9.64235 6.6425 10.3341 6.41187 11.1906C6 12.7553 6 16 6 16C6 16 6 19.2612 6.41187 20.8094C6.6425 21.6659 7.31795 22.3412 8.17462 22.5718C9.75616 23 16 23 16 23C16 23 22.2602 23 23.8253 22.5882C24.682 22.3576 25.3574 21.6824 25.5881 20.8259C25.9999 19.2612 25.9999 16.0165 25.9999 16.0165C25.9999 16.0165 26.0164 12.7553 25.5881 11.1906Z" fill="#3C2008"/>
</g>
<defs>
<clipPath id="clip0_4294_296">
<rect width="32" height="32" fill="white"/>
</clipPath>
</defs>
</svg>
